<svg preserveAspectRatio="none" width="100%" height="100%" overflow="visible" style="display: block;" viewBox="0 0 24.1 22.1002" fill="none" xmlns="http://www.w3.org/2000/svg">
<g id="Group">
<path id="Vector" d="M10.8508 20.9057L17.6575 14.107C18.1788 13.5857 19.0228 13.5857 19.5428 14.107L23.0495 17.6137" stroke="var(--stroke-0, #202020)" style="stroke:#202020;stroke:color(display-p3 0.1255 0.1255 0.1255);stroke-opacity:1;" stroke-width="2.1" stroke-linecap="round" stroke-linejoin="round"/>
<path id="Vector_2" d="M21.2644 7.19898C22.3046 7.56258 23.05 8.55232 23.05 9.71685V18.3835C23.05 19.8568 21.8567 21.0502 20.3834 21.0502H11.7167C10.2433 21.0502 9.05 19.8568 9.05 18.3835V9.71685C9.05 8.24351 10.2433 7.05018 11.7167 7.05018H11.9381" stroke="var(--stroke-0, #202020)" style="stroke:#202020;stroke:color(display-p3 0.1255 0.1255 0.1255);stroke-opacity:1;" stroke-width="2.1" stroke-linecap="round" stroke-linejoin="round"/>
<path id="Vector_3" d="M13.3834 12.7168C12.6487 12.7168 12.05 12.1182 12.05 11.3835C12.05 10.6488 12.6487 10.0502 13.3834 10.0502C14.118 10.0502 14.7167 10.6488 14.7167 11.3835C14.7167 12.1182 14.118 12.7168 13.3834 12.7168Z" fill="var(--fill-0, #202020)" style="fill:#202020;fill:color(display-p3 0.1255 0.1255 0.1255);fill-opacity:1;"/>
<path id="Vector_4" d="M4.38398 1.05V9.05" stroke="var(--stroke-0, #202020)" style="stroke:#202020;stroke:color(display-p3 0.1255 0.1255 0.1255);stroke-opacity:1;" stroke-width="2.1" stroke-linecap="round" stroke-linejoin="round"/>
<path id="Vector_5" d="M7.71667 1.05018H1.05" stroke="var(--stroke-0, #202020)" style="stroke:#202020;stroke:color(display-p3 0.1255 0.1255 0.1255);stroke-opacity:1;" stroke-width="2.1" stroke-linecap="round" stroke-linejoin="round"/>
<path id="Vector_6" d="M6.37398 17.7418L5.11265 17.3218L4.6913 16.0591C4.5553 15.6511 3.8793 15.6511 3.7433 16.0591L3.32198 17.3218L2.06065 17.7418C1.85665 17.8098 1.71797 18.0005 1.71797 18.2165C1.71797 18.4325 1.85665 18.6231 2.06065 18.6911L3.32198 19.1111L3.7433 20.3738C3.8113 20.5778 4.00198 20.7151 4.21665 20.7151C4.43132 20.7151 4.62332 20.5765 4.68998 20.3738L5.1113 19.1111L6.37264 18.6911C6.57664 18.6231 6.71532 18.4325 6.71532 18.2165C6.71532 18.0005 6.57798 17.8098 6.37398 17.7418Z" fill="var(--fill-0, #202020)" style="fill:#202020;fill:color(display-p3 0.1255 0.1255 0.1255);fill-opacity:1;"/>
<path id="Vector_7" d="M19.594 3.41818L17.91 2.85685L17.3487 1.17285C17.166 0.628842 16.266 0.628842 16.0834 1.17285L15.522 2.85685L13.838 3.41818C13.566 3.50885 13.382 3.76352 13.382 4.05018C13.382 4.33685 13.566 4.59152 13.838 4.68218L15.522 5.24352L16.0834 6.92752C16.174 7.19952 16.43 7.38352 16.7167 7.38352C17.0034 7.38352 17.258 7.19952 17.35 6.92752L17.9114 5.24352L19.5954 4.68218C19.8674 4.59152 20.0514 4.33685 20.0514 4.05018C20.0514 3.76352 19.866 3.50885 19.594 3.41818Z" fill="var(--fill-0, #202020)" style="fill:#202020;fill:color(display-p3 0.1255 0.1255 0.1255);fill-opacity:1;"/>
<path id="Vector_8" d="M2.38398 14.05C2.93598 14.05 3.38398 13.602 3.38398 13.05C3.38398 12.498 2.93598 12.05 2.38398 12.05C1.83198 12.05 1.38398 12.498 1.38398 13.05C1.38398 13.602 1.83198 14.05 2.38398 14.05Z" fill="var(--fill-0, #202020)" style="fill:#202020;fill:color(display-p3 0.1255 0.1255 0.1255);fill-opacity:1;"/>
</g>
</svg>
