<svg preserveAspectRatio="none" width="100%" height="100%" overflow="visible" style="display: block;" viewBox="0 0 21.4333 18.7667" fill="none" xmlns="http://www.w3.org/2000/svg">
<g id="Group">
<path id="Vector" d="M13.1153 8.67568L9.94861 6.82768C9.40327 6.50902 8.71927 6.90235 8.71927 7.53435V11.229C8.71927 11.8597 9.40461 12.253 9.94861 11.9357L13.1153 10.0877C13.6566 9.77168 13.6566 8.99035 13.1153 8.67435V8.67568Z" fill="var(--fill-0, #202020)" style="fill:#202020;fill:color(display-p3 0.1255 0.1255 0.1255);fill-opacity:1;"/>
<path id="Vector_2" d="M3.71667 17.7167L17.7167 17.7167C19.1894 17.7167 20.3833 16.5228 20.3833 15.05V3.71667C20.3833 2.24391 19.1894 1.05 17.7167 1.05L3.71667 1.05C2.24391 1.05 1.05 2.24391 1.05 3.71667V15.05C1.05 16.5228 2.24391 17.7167 3.71667 17.7167Z" stroke="var(--stroke-0, #202020)" style="stroke:#202020;stroke:color(display-p3 0.1255 0.1255 0.1255);stroke-opacity:1;" stroke-width="2.1" stroke-linecap="round" stroke-linejoin="round"/>
<path id="Vector_3" d="M10.0513 4.38268H11.3846" stroke="var(--stroke-0, #202020)" style="stroke:#202020;stroke:color(display-p3 0.1255 0.1255 0.1255);stroke-opacity:1;" stroke-width="2.1" stroke-linecap="round" stroke-linejoin="round"/>
<path id="Vector_4" d="M5.0513 4.38268H6.38464" stroke="var(--stroke-0, #202020)" style="stroke:#202020;stroke:color(display-p3 0.1255 0.1255 0.1255);stroke-opacity:1;" stroke-width="2.1" stroke-linecap="round" stroke-linejoin="round"/>
<path id="Vector_5" d="M15.0513 4.38268H16.3846" stroke="var(--stroke-0, #202020)" style="stroke:#202020;stroke:color(display-p3 0.1255 0.1255 0.1255);stroke-opacity:1;" stroke-width="2.1" stroke-linecap="round" stroke-linejoin="round"/>
<path id="Vector_6" d="M10.0513 14.3827H11.3846" stroke="var(--stroke-0, #202020)" style="stroke:#202020;stroke:color(display-p3 0.1255 0.1255 0.1255);stroke-opacity:1;" stroke-width="2.1" stroke-linecap="round" stroke-linejoin="round"/>
<path id="Vector_7" d="M5.0513 14.3827H6.38464" stroke="var(--stroke-0, #202020)" style="stroke:#202020;stroke:color(display-p3 0.1255 0.1255 0.1255);stroke-opacity:1;" stroke-width="2.1" stroke-linecap="round" stroke-linejoin="round"/>
<path id="Vector_8" d="M15.0513 14.3827H16.3846" stroke="var(--stroke-0, #202020)" style="stroke:#202020;stroke:color(display-p3 0.1255 0.1255 0.1255);stroke-opacity:1;" stroke-width="2.1" stroke-linecap="round" stroke-linejoin="round"/>
</g>
</svg>
