<svg preserveAspectRatio="none" width="100%" height="100%" overflow="visible" style="display: block;" viewBox="0 0 20.0993 20.0993" fill="none" xmlns="http://www.w3.org/2000/svg">
<g id="Group">
<path id="Vector" d="M10.384 1.05H11.7173C13.1901 1.05 14.384 2.24387 14.384 3.71667V5.71667" stroke="var(--stroke-0, #202020)" style="stroke:#202020;stroke:color(display-p3 0.1255 0.1255 0.1255);stroke-opacity:1;" stroke-width="2.1" stroke-linecap="round" stroke-linejoin="round"/>
<path id="Vector_2" d="M1.05 5.05V3.71667C1.05 2.24387 2.24387 1.05 3.71667 1.05H5.05" stroke="var(--stroke-0, #202020)" style="stroke:#202020;stroke:color(display-p3 0.1255 0.1255 0.1255);stroke-opacity:1;" stroke-width="2.1" stroke-linecap="round" stroke-linejoin="round"/>
<path id="Vector_3" d="M5.71667 14.384H3.71667C2.24387 14.384 1.05 13.1901 1.05 11.7173V10.384" stroke="var(--stroke-0, #202020)" style="stroke:#202020;stroke:color(display-p3 0.1255 0.1255 0.1255);stroke-opacity:1;" stroke-width="2.1" stroke-linecap="round" stroke-linejoin="round"/>
<path id="Vector_4" d="M16.3827 5.71602H8.38268C6.90992 5.71602 5.71602 6.90992 5.71602 8.38268V16.3827C5.71602 17.8555 6.90992 19.0493 8.38268 19.0493H16.3827C17.8555 19.0493 19.0493 17.8555 19.0493 16.3827V8.38268C19.0493 6.90992 17.8555 5.71602 16.3827 5.71602Z" stroke="var(--stroke-0, #202020)" style="stroke:#202020;stroke:color(display-p3 0.1255 0.1255 0.1255);stroke-opacity:1;" stroke-width="2.1" stroke-linecap="round" stroke-linejoin="round"/>
</g>
</svg>
